# xmcd CD database file
#
# Track frame offsets:
#	150
#	19816
#	43995
#	67011
#	83624
#	106843
#	123000
#	141361
#	164312
#	191125
#	209640
#	229622
#	244111
#	259472
#	274875
#	292599
#	315003
#	334366
#
# Disc length: 4725 seconds
#
# Revision: 4
# Processed by: cddbd v1.5.2PL0 Copyright (c) Steve Scherf et al.
# Submitted via: CDex 1.70beta3
#
DISCID=07127312
DTITLE=Aerosmith - Devil's Got A New Disguise
DYEAR=2006
DGENRE=Hard Rock
TTITLE0=Dude (Looks Like A Lady)
TTITLE1=Love In An Elevator
TTITLE2=Livin' On The Edge
TTITLE3=Walk This Way (Single Version)
TTITLE4=Cryin'
TTITLE5=Jaded
TTITLE6=Crazy (LP Edit)
TTITLE7=Angel
TTITLE8=Amazing
TTITLE9=The Other Side
TTITLE10=Dream On
TTITLE11=Sweet Emotion (Single Version)
TTITLE12=Draw The Line (Remix) *
TTITLE13=Falling In Love (Is Hard On The Knees)
TTITLE14=Pink
TTITLE15=I Don't Want To Miss A Thing (Rock Mix)(Album Version)
TTITLE16=Sedona Sunrise (New Recoding Track)
TTITLE17=Devil's Got A New Disguise (New Recoding Track)
EXTD=YEAR: 2006
EXTT0=
EXTT1=
EXTT2=
EXTT3=
EXTT4=
EXTT5=
EXTT6=
EXTT7=
EXTT8=
EXTT9=
EXTT10=
EXTT11=
EXTT12=
EXTT13=
EXTT14=
EXTT15=
EXTT16=
EXTT17=
PLAYORDER=
